<svg xmlns="http://www.w3.org/2000/svg" viewBox="0 0 500 500"><g id="freepik--background-complete--inject-2"><rect x="416.78" y="398.49" width="33.12" height="0.25" style="fill:#ebebeb"></rect><rect x="322.53" y="401.21" width="8.69" height="0.25" style="fill:#ebebeb"></rect><rect x="396.59" y="389.21" width="19.19" height="0.25" style="fill:#ebebeb"></rect><rect x="52.46" y="390.89" width="43.19" height="0.25" style="fill:#ebebeb"></rect><rect x="104.56" y="390.89" width="6.33" height="0.25" style="fill:#ebebeb"></rect><rect x="131.47" y="395.11" width="93.68" height="0.25" style="fill:#ebebeb"></rect><path d="M237,337.8H43.92a5.71,5.71,0,0,1-5.71-5.71V60.66A5.71,5.71,0,0,1,43.92,55H237a5.71,5.71,0,0,1,5.71,5.71V332.09A5.71,5.71,0,0,1,237,337.8ZM43.92,55.2a5.47,5.47,0,0,0-5.46,5.46V332.09a5.47,5.47,0,0,0,5.46,5.46H237a5.47,5.47,0,0,0,5.46-5.46V60.66A5.47,5.47,0,0,0,237,55.2Z" style="fill:#ebebeb"></path><path d="M453.31,337.8H260.21a5.72,5.72,0,0,1-5.71-5.71V60.66A5.72,5.72,0,0,1,260.21,55h193.1A5.71,5.71,0,0,1,459,60.66V332.09A5.71,5.71,0,0,1,453.31,337.8ZM260.21,55.2a5.47,5.47,0,0,0-5.46,5.46V332.09a5.47,5.47,0,0,0,5.46,5.46h193.1a5.47,5.47,0,0,0,5.46-5.46V60.66a5.47,5.47,0,0,0-5.46-5.46Z" style="fill:#ebebeb"></path><rect y="382.4" width="500" height="0.25" style="fill:#ebebeb"></rect><rect x="95.9" y="100.32" width="1.8" height="140.37" style="fill:#e0e0e0"></rect><rect x="207.95" y="100.32" width="1.8" height="140.37" style="fill:#e0e0e0"></rect><polygon points="216.8 109.15 88.85 109.15 86.15 102.85 219.5 102.85 216.8 109.15" style="fill:#ebebeb"></polygon><polygon points="216.8 117.8 88.85 117.8 86.15 111.5 219.5 111.5 216.8 117.8" style="fill:#ebebeb"></polygon><polygon points="216.8 126.45 88.85 126.45 86.15 120.15 219.5 120.15 216.8 126.45" style="fill:#ebebeb"></polygon><polygon points="216.8 135.1 88.85 135.1 86.15 128.8 219.5 128.8 216.8 135.1" style="fill:#ebebeb"></polygon><polygon points="216.8 143.75 88.85 143.75 86.15 137.45 219.5 137.45 216.8 143.75" style="fill:#ebebeb"></polygon><polygon points="216.8 152.4 88.85 152.4 86.15 146.1 219.5 146.1 216.8 152.4" style="fill:#ebebeb"></polygon><polygon points="216.8 161.05 88.85 161.05 86.15 154.75 219.5 154.75 216.8 161.05" style="fill:#ebebeb"></polygon><polygon points="216.8 169.7 88.85 169.7 86.15 163.4 219.5 163.4 216.8 169.7" style="fill:#ebebeb"></polygon><polygon points="216.8 178.34 88.85 178.34 86.15 172.04 219.5 172.04 216.8 178.34" style="fill:#ebebeb"></polygon><polygon points="216.8 186.99 88.85 186.99 86.15 180.69 219.5 180.69 216.8 186.99" style="fill:#ebebeb"></polygon><polygon points="216.8 195.64 88.85 195.64 86.15 189.34 219.5 189.34 216.8 195.64" style="fill:#ebebeb"></polygon><polygon points="216.8 204.29 88.85 204.29 86.15 197.99 219.5 197.99 216.8 204.29" style="fill:#ebebeb"></polygon><polygon points="216.8 212.94 88.85 212.94 86.15 206.64 219.5 206.64 216.8 212.94" style="fill:#ebebeb"></polygon><polygon points="216.8 221.59 88.85 221.59 86.15 215.29 219.5 215.29 216.8 221.59" style="fill:#ebebeb"></polygon><polygon points="216.8 230.24 88.85 230.24 86.15 223.94 219.5 223.94 216.8 230.24" style="fill:#ebebeb"></polygon><polygon points="216.8 238.89 88.85 238.89 86.15 232.59 219.5 232.59 216.8 238.89" style="fill:#ebebeb"></polygon><rect x="86.15" y="238.89" width="133.35" height="3.6" style="fill:#e0e0e0"></rect><rect x="81.5" y="94.96" width="142.65" height="8.4" style="fill:#e0e0e0"></rect><path d="M83,179.52h0a1.45,1.45,0,0,1-1.45-1.45v-49A1.45,1.45,0,0,1,83,127.62h0a1.45,1.45,0,0,1,1.45,1.45v49A1.45,1.45,0,0,1,83,179.52Z" style="fill:#e0e0e0"></path><rect x="82.44" y="101.68" width="1.05" height="29.1" style="fill:#e0e0e0"></rect><path d="M245.87,153.75h4.44a2.75,2.75,0,0,1,2.75,2.75V285.59a0,0,0,0,1,0,0h-9.95a0,0,0,0,1,0,0V156.5A2.75,2.75,0,0,1,245.87,153.75Z" style="fill:#e6e6e6"></path><path d="M248.93,153.75h-2.74a3.08,3.08,0,0,0-3.08,3.07V285.59h2.74V156.82A3.08,3.08,0,0,1,248.93,153.75Z" style="fill:#f0f0f0"></path><rect x="240.29" y="277.08" width="15.66" height="105.57" style="fill:#ebebeb"></rect><path d="M234.72,378.38h26.8a3.82,3.82,0,0,1,3.82,3.82v.44a0,0,0,0,1,0,0H230.9a0,0,0,0,1,0,0v-.44A3.82,3.82,0,0,1,234.72,378.38Z" style="fill:#e6e6e6"></path><path d="M396.42,330.5h25.25a8.22,8.22,0,0,0,8.21-8.21V285.37a1.5,1.5,0,0,0-1.5-1.5h0a1.5,1.5,0,0,0-1.5,1.5v36.92a5.21,5.21,0,0,1-5.21,5.21H396.42Z" style="fill:#e0e0e0"></path><path d="M389.2,365.88V331.5l-2-.63a5.46,5.46,0,0,1-3.82-5.2h19.05a5.45,5.45,0,0,1-3.82,5.2l-2,.63v34.38L412.42,373v3l-19.53-6.83L373.36,376v-3Z" style="fill:#e0e0e0"></path><path d="M368,327.5h49.81a5.41,5.41,0,0,0,5.41-5.41h0a5.41,5.41,0,0,0-5.41-5.4H368a5.4,5.4,0,0,0-5.4,5.4h0A5.4,5.4,0,0,0,368,327.5Z" style="fill:#f0f0f0"></path><path d="M426.58,298.36l2.69-38.44a5.4,5.4,0,0,0-5-5.76h0a5.4,5.4,0,0,0-5.77,5l-2.69,38.44a5.41,5.41,0,0,0,5,5.77h0A5.41,5.41,0,0,0,426.58,298.36Z" style="fill:#ebebeb"></path><path d="M409,378.11a3.42,3.42,0,1,0,3.42-3.42A3.42,3.42,0,0,0,409,378.11Z" style="fill:#e0e0e0"></path><path d="M369.94,378.11a3.42,3.42,0,1,0,3.42-3.42A3.42,3.42,0,0,0,369.94,378.11Z" style="fill:#e0e0e0"></path><path d="M100.37,330.5H75.12a8.22,8.22,0,0,1-8.22-8.21V285.37a1.5,1.5,0,0,1,1.5-1.5h0a1.5,1.5,0,0,1,1.5,1.5v36.92a5.22,5.22,0,0,0,5.22,5.21h25.25Z" style="fill:#e0e0e0"></path><path d="M107.59,365.88V331.5l2-.63a5.45,5.45,0,0,0,3.81-5.2h-19a5.46,5.46,0,0,0,3.82,5.2l2,.63v34.38L84.37,373v3l19.53-6.83L123.43,376v-3Z" style="fill:#e0e0e0"></path><path d="M128.8,327.5H79a5.41,5.41,0,0,1-5.4-5.41h0a5.4,5.4,0,0,1,5.4-5.4H128.8a5.41,5.41,0,0,1,5.41,5.4h0A5.41,5.41,0,0,1,128.8,327.5Z" style="fill:#f0f0f0"></path><path d="M70.2,298.36l-2.69-38.44a5.4,5.4,0,0,1,5-5.76h0a5.4,5.4,0,0,1,5.77,5L81,297.61a5.41,5.41,0,0,1-5,5.77h0A5.41,5.41,0,0,1,70.2,298.36Z" style="fill:#ebebeb"></path><path d="M87.78,378.11a3.42,3.42,0,1,1-3.41-3.42A3.41,3.41,0,0,1,87.78,378.11Z" style="fill:#e0e0e0"></path><path d="M126.84,378.11a3.42,3.42,0,1,1-3.41-3.42A3.41,3.41,0,0,1,126.84,378.11Z" style="fill:#e0e0e0"></path><polygon points="207.68 382.65 188.18 382.65 186.18 345.67 209.68 345.67 207.68 382.65" style="fill:#ebebeb"></polygon><polygon points="192.68 382.65 184.68 382.65 184.68 381 192.68 380 192.68 382.65" style="fill:#e0e0e0"></polygon><path d="M189.15,342.67h17.56a3,3,0,0,1,3,3v0a0,0,0,0,1,0,0H186.17a0,0,0,0,1,0,0v0a3,3,0,0,1,3-3Z" style="fill:#e0e0e0"></path><polygon points="167.68 286.74 136.46 286.74 136.46 283 167.68 281 167.68 286.74" style="fill:#e0e0e0"></polygon><rect x="121.51" y="290.55" width="92.33" height="12.78" style="fill:#f0f0f0"></rect><rect x="102.7" y="286.74" width="130.28" height="7.62" style="fill:#fafafa"></rect><polygon points="220.88 382.65 226.76 382.65 216.58 294.36 209.68 294.36 220.88 382.65" style="fill:#e6e6e6"></polygon><polygon points="126 294.36 119.1 294.36 108.91 382.65 114.8 382.65 126 294.36" style="fill:#e6e6e6"></polygon><path d="M199.29,284.84q-4-19.86-8-39.74c-.38-1.89-3.28-1.09-2.9.8L196,283.74h-16.5a1.5,1.5,0,0,0,0,3h18.33A1.52,1.52,0,0,0,199.29,284.84Z" style="fill:#e0e0e0"></path><path d="M180.61,274.18h0l5.14-73.48h0a13.61,13.61,0,0,1,5.67,12.05L187.91,263A13.64,13.64,0,0,1,180.61,274.18Z" style="fill:#fafafa"></path><rect x="209.4" y="265.38" width="14.16" height="21.36" rx="2.9" style="fill:#f5f5f5"></rect><path d="M215,257.43c-2.21,0-4,.55-4,1.22s1.8-.24,4-.24a7.92,7.92,0,0,1,.85,0v4.84h1.26v-4.65c1.14.21,1.9.44,1.9,0C219,258,217.21,257.43,215,257.43Z" style="fill:#e0e0e0"></path><rect x="214.23" y="261.73" width="4.51" height="4.51" style="fill:#f0f0f0"></rect><rect x="282.94" y="290.55" width="92.33" height="12.78" transform="translate(658.22 593.89) rotate(180)" style="fill:#f0f0f0"></rect><rect x="263.8" y="286.74" width="130.28" height="7.62" transform="translate(657.89 581.11) rotate(180)" style="fill:#fafafa"></rect><polygon points="275.91 382.65 270.02 382.65 280.2 294.36 287.1 294.36 275.91 382.65" style="fill:#e6e6e6"></polygon><polygon points="370.79 294.36 377.69 294.36 387.87 382.65 381.98 382.65 370.79 294.36" style="fill:#e6e6e6"></polygon><rect x="330.1" y="65.46" width="2.23" height="69.23" style="fill:#e0e0e0"></rect><polygon points="303.41 148.03 331.23 104.86 359.04 148.03 303.41 148.03" style="fill:#e0e0e0"></polygon><rect x="148.2" y="65.46" width="2.23" height="55.63" style="fill:#e0e0e0"></rect><polygon points="121.51 146.21 149.32 103.04 177.13 146.21 121.51 146.21" style="fill:#fafafa"></polygon></g><g id="freepik--Shadow--inject-2"><ellipse id="freepik--path--inject-2" cx="245.18" cy="412.39" rx="193.89" ry="11.32" style="fill:#f5f5f5"></ellipse></g><g id="freepik--Device--inject-2"><path d="M346.71,406.43c0-.11,0-.21-.08-.32s-.09-.33-.14-.49l-.17-.47s0,0,0,0l-.18-.41-17.66-39.08-3.1-6.87-2.44-5.39H268.74l.93,5.39,1.19,6.87,6.2,35.81h0c0,.13,0,.25.05.38a2.29,2.29,0,0,1,0,.37v.09c0,.12,0,.24,0,.37L277,403a0,0,0,0,1,0,0,2.6,2.6,0,0,1-.1.4,1.43,1.43,0,0,1-.09.27l0,0,0,.08,0,.07a3,3,0,0,1-.16.31,2.33,2.33,0,0,1-.2.34s0,0,0,0l-.06.09-.19.24a4,4,0,0,1-.27.31,4,4,0,0,1-.54.47,3.06,3.06,0,0,1-.49.3,1.62,1.62,0,0,1-.35.17,2.92,2.92,0,0,1-.38.14h0l-.05,0a3.58,3.58,0,0,1-.35.09h0a4.26,4.26,0,0,1-.89.09H249.05a2.18,2.18,0,0,0-.67.1,3.12,3.12,0,0,0-.42.18,2.36,2.36,0,0,0-.81.73,2.42,2.42,0,0,0-.21.39,2.26,2.26,0,0,0-.18.9v2.56a2.26,2.26,0,0,0,.18.9,2.42,2.42,0,0,0,.21.39,2.36,2.36,0,0,0,.81.73,3.12,3.12,0,0,0,.42.18,2.18,2.18,0,0,0,.67.1h95.41a2.44,2.44,0,0,0,1.39-.43,1.9,1.9,0,0,0,.37-.31,2.64,2.64,0,0,0,.31-.37,2.32,2.32,0,0,0,.22-.41h0a2.62,2.62,0,0,0,.19-1v-2.66A9.12,9.12,0,0,0,346.71,406.43Z" style="fill:#263238"></path><path d="M246.76,408.81v2.57a2.29,2.29,0,0,0,2.3,2.3h95.4a2.51,2.51,0,0,0,2.5-2.49v-2.67a9.24,9.24,0,0,0-.24-2.09,9.61,9.61,0,0,0-.58-1.74l-23.21-51.33H268.74l8.32,48.07a4.12,4.12,0,0,1,.07.85,4.33,4.33,0,0,1-4.35,4.24H249.06A2.29,2.29,0,0,0,246.76,408.81Z" style="fill:#fff;opacity:0.2"></path><path d="M349.2,404.7,326,353.36h-3.07l23.2,51.34a9.31,9.31,0,0,1,.83,3.82v2.66a2.5,2.5,0,0,1-2.5,2.5h3.07a2.49,2.49,0,0,0,2.49-2.5v-2.66A9.3,9.3,0,0,0,349.2,404.7Z" style="fill:#263238"></path><polygon points="322.93 353.36 268.74 353.36 270.87 365.63 328.47 365.63 322.93 353.36" style="opacity:0.30000000000000004"></polygon><path d="M429.75,183.23l-13,149-1.58,18.06a9.41,9.41,0,0,1-9.19,8.46H174.74a7.63,7.63,0,0,1-7.71-8.46l1.58-18.06,13-149a9.4,9.4,0,0,1,9.19-8.45H422a7.81,7.81,0,0,1,5,1.74,5.16,5.16,0,0,1,.54.5,7.13,7.13,0,0,1,1.31,1.77,6.46,6.46,0,0,1,.57,1.38A8.13,8.13,0,0,1,429.75,183.23Z" style="fill:#263238"></path><path d="M168.62,332.23,167,350.29a7.64,7.64,0,0,0,7.72,8.46H405.94a9.41,9.41,0,0,0,9.19-8.46l1.58-18.06Z" style="fill:#001F3F"></path><path d="M168.62,332.23,167,350.29a7.64,7.64,0,0,0,7.72,8.46H405.94a9.41,9.41,0,0,0,9.19-8.46l1.58-18.06Z" style="fill:#fff;opacity:0.6000000000000001"></path><path d="M408.56,327.12H177.67a4.13,4.13,0,0,1-4.18-4.58l12.08-138.07a5.1,5.1,0,0,1,5-4.59H421.44a4.13,4.13,0,0,1,4.18,4.59L413.54,322.54A5.1,5.1,0,0,1,408.56,327.12Z" style="fill:#001F3F"></path><path d="M427.15,174.78H422a7.62,7.62,0,0,1,7.71,8.45L415.13,350.29a9.41,9.41,0,0,1-9.19,8.46h5.11a9.42,9.42,0,0,0,9.2-8.46l14.61-167.06A7.61,7.61,0,0,0,427.15,174.78Z" style="fill:#263238"></path><g style="opacity:0.2"><path d="M427.15,174.78H422a7.62,7.62,0,0,1,7.71,8.45L415.13,350.29a9.41,9.41,0,0,1-9.19,8.46h5.11a9.42,9.42,0,0,0,9.2-8.46l14.61-167.06A7.61,7.61,0,0,0,427.15,174.78Z" style="fill:#fff"></path></g><g style="opacity:0.1"><polygon points="264.12 179.88 255.24 179.88 223.95 327.12 232.83 327.12 264.12 179.88" style="fill:#fff"></polygon><polygon points="214.97 327.12 246.27 179.88 212.9 179.88 181.6 327.12 214.97 327.12" style="fill:#fff"></polygon></g><path d="M330.47,408.83v2.44a2.41,2.41,0,0,1-2.4,2.41h-79a2.3,2.3,0,0,1-2.3-2.3v-2.56a2.3,2.3,0,0,1,2.3-2.3h23.73a4.41,4.41,0,0,0,.89-.09h54.39A2.4,2.4,0,0,1,330.47,408.83Z" style="fill:#fff;opacity:0.2"></path><path d="M346.72,406.43h-73a4.35,4.35,0,0,0,3.45-4.15h67.72Z" style="opacity:0.2"></path></g><g id="freepik--profile-3--inject-2"><rect x="304.65" y="204.19" width="111.12" height="128.02" style="opacity:0.30000000000000004"></rect><rect x="299" y="190.68" width="110.91" height="135.93" style="fill:#fff"></rect><rect x="299" y="190.68" width="110.91" height="8.04" style="fill:#263238"></rect><rect x="329.75" y="198.72" width="80.16" height="127.89" style="opacity:0.1"></rect><rect x="333.7" y="201.78" width="22.52" height="26.04" style="opacity:0.1"></rect><rect x="360.5" y="201.78" width="46.71" height="10.72" style="opacity:0.1"></rect><rect x="360.5" y="217.1" width="46.71" height="57.82" style="opacity:0.1"></rect><rect x="360.5" y="279.51" width="46.71" height="43.27" style="opacity:0.1"></rect><rect x="329.5" y="237.77" width="31.01" height="9.96" style="fill:#001F3F"></rect><rect x="299" y="217.1" width="31.01" height="9.96" style="fill:#001F3F"></rect><rect x="360.5" y="288.99" width="46.71" height="5.17"></rect><polygon points="365.2 206.12 366.17 204.15 367.14 206.12 369.31 206.43 367.74 207.97 368.11 210.13 366.17 209.11 364.23 210.13 364.6 207.97 363.02 206.44 365.2 206.12" style="fill:#001F3F"></polygon><polygon points="374.04 206.12 375.01 204.15 375.99 206.12 378.16 206.43 376.59 207.97 376.96 210.13 375.02 209.11 373.07 210.13 373.44 207.97 371.87 206.44 374.04 206.12" style="fill:#001F3F"></polygon><polygon points="382.89 206.12 383.86 204.15 384.83 206.12 387 206.43 385.43 207.97 385.81 210.13 383.86 209.11 381.92 210.13 382.29 207.97 380.72 206.44 382.89 206.12" style="fill:#001F3F"></polygon><polygon points="391.73 206.12 392.7 204.15 393.68 206.12 395.85 206.43 394.28 207.97 394.65 210.13 392.71 209.11 390.77 210.13 391.13 207.97 389.56 206.44 391.73 206.12"></polygon><polygon points="400.58 206.12 401.55 204.15 402.52 206.12 404.69 206.43 403.13 207.97 403.5 210.13 401.55 209.11 399.61 210.13 399.98 207.97 398.41 206.44 400.58 206.12"></polygon><rect x="363.83" y="222.2" width="18.37" height="1" style="fill:#263238"></rect><rect x="363.83" y="230.81" width="14.5" height="1" style="fill:#263238"></rect><rect x="363.83" y="238.34" width="14.5" height="1" style="fill:#263238"></rect><rect x="363.83" y="245.86" width="14.5" height="1" style="fill:#263238"></rect><rect x="363.83" y="253.38" width="14.5" height="1" style="fill:#263238"></rect><rect x="363.83" y="260.91" width="14.5" height="1" style="fill:#263238"></rect><rect x="363.83" y="268.43" width="14.5" height="1" style="fill:#263238"></rect><rect x="380.33" y="230.81" width="14.5" height="1" style="fill:#263238"></rect><rect x="380.33" y="238.34" width="14.5" height="1" style="fill:#263238"></rect><rect x="380.33" y="245.86" width="14.5" height="1" style="fill:#263238"></rect><rect x="380.33" y="253.38" width="14.5" height="1" style="fill:#263238"></rect><rect x="380.33" y="260.91" width="14.5" height="1" style="fill:#263238"></rect><rect x="380.33" y="268.43" width="14.5" height="1" style="fill:#263238"></rect><rect x="363.83" y="225.07" width="31" height="1" style="fill:#263238"></rect><rect x="363.83" y="284.46" width="31" height="1" style="fill:#263238"></rect><rect x="333.7" y="230.81" width="22.52" height="1" style="fill:#263238"></rect><rect x="333.7" y="252.72" width="22.52" height="1" style="fill:#263238"></rect><rect x="333.7" y="261.1" width="22.52" height="1" style="fill:#263238"></rect><rect x="333.7" y="269.47" width="22.52" height="1" style="fill:#263238"></rect><rect x="333.7" y="277.85" width="22.52" height="1" style="fill:#263238"></rect><rect x="333.7" y="286.23" width="22.52" height="1" style="fill:#263238"></rect><rect x="333.7" y="294.6" width="22.52" height="1" style="fill:#263238"></rect><rect x="333.7" y="302.98" width="22.52" height="1" style="fill:#263238"></rect><rect x="333.7" y="311.35" width="22.52" height="1" style="fill:#263238"></rect><rect x="333.7" y="234.04" width="11.26" height="1" style="fill:#263238"></rect><rect x="302.88" y="203.65" width="23.26" height="1" style="fill:#263238"></rect><rect x="302.88" y="210.11" width="23.26" height="1" style="fill:#263238"></rect><rect x="302.88" y="234.04" width="23.26" height="1" style="fill:#263238"></rect><path d="M333.74,227.69v-3.17h0a33.43,33.43,0,0,1,21.84-.23l.68.23v3.17Z" style="fill:#fff"></path><path d="M343.88,226.83a6.8,6.8,0,0,0,4.53-2.5,1.23,1.23,0,0,0-.12-1.54c-1.6-1.89-1.89-6.1-1.87-8.58l-1.8,2.31-2.45,3.15c.17.39.33.78.46,1.18a4.69,4.69,0,0,1,.21.88h0v0a2.75,2.75,0,0,1-1.27,2.85,1.2,1.2,0,0,0,.23,2.12A4.31,4.31,0,0,0,343.88,226.83Z" style="fill:#f7978d"></path><path d="M342.17,219.67c.17.39.33.78.46,1.18a4.69,4.69,0,0,1,.21.88h0v0a3.92,3.92,0,0,0,2.2-3.17,5.67,5.67,0,0,0-.21-1.15Z" style="opacity:0.2;isolation:isolate"></path><path d="M339.91,213.87a1.36,1.36,0,0,1-2.36,0c.85-1.78.21-1.95.16-3.28a4.27,4.27,0,0,1,1.83-4l1.37,0C345.84,207.61,339.91,213.87,339.91,213.87Z" style="fill:#263238"></path><path d="M347.84,209.61a4.86,4.86,0,0,0-5.88-3.56c-3.83.84-5.43,6.1-5.31,9.47a4.87,4.87,0,0,0,.89,2.71,4.79,4.79,0,0,0,6.69,1.12c2.22-1.54,2.6-3.67,3.56-7.24A4.93,4.93,0,0,0,347.84,209.61Z" style="fill:#f7978d"></path><path d="M338.33,215.82a17.07,17.07,0,0,1,3.74-.33,2.14,2.14,0,0,1-2.25,1.7,1.38,1.38,0,0,1-1.47-1.25S338.34,215.86,338.33,215.82Z" style="fill:#263238"></path><path d="M340.43,216.45a2.32,2.32,0,0,0-1.52.48,1.47,1.47,0,0,0,.9.25,2.24,2.24,0,0,0,1.51-.48A1.44,1.44,0,0,0,340.43,216.45Z" style="fill:#ff5652"></path><path d="M338.46,215.79a.61.61,0,0,0,.46.44,13.31,13.31,0,0,0,2.43-.28.76.76,0,0,0,.59-.47A20.28,20.28,0,0,0,338.46,215.79Z" style="fill:#fff"></path><path d="M346.52,216.84s-1.59-3.6-1.46-4.77a3.5,3.5,0,0,1,2.34-3.14l1.34.28C354.57,211.62,346.52,216.84,346.52,216.84Z" style="fill:#263238"></path><path d="M339.22,214.73a1.68,1.68,0,0,1-1.34-.5A11,11,0,0,0,339.8,212Z" style="fill:#ff5652"></path><path d="M347.76,213c-.92-.14-1.9,1-2.3,1.82s-.14,1.8.83,1.58a3.46,3.46,0,0,0,1.91-1.33C348.79,214.23,348.67,213.13,347.76,213Z" style="fill:#f7978d"></path><path d="M341.92,211.92c-.2,0-.41.21-.46.48s.06.53.25.56.37-.18.45-.47S342.11,212,341.92,211.92Z" style="fill:#263238"></path><path d="M338.63,211.19c-.19,0-.4.17-.46.47s.05.56.24.59.4-.18.46-.48S338.82,211.22,338.63,211.19Z" style="fill:#263238"></path><path d="M339.36,210.05a.18.18,0,0,1-.16,0,1.48,1.48,0,0,0-1.29.17.17.17,0,0,1-.24,0h0a.2.2,0,0,1,0-.25h0a1.84,1.84,0,0,1,1.61-.23.18.18,0,0,1,.11.22A.22.22,0,0,1,339.36,210.05Z" style="fill:#263238"></path><path d="M342.94,211.49a.24.24,0,0,1-.16-.07,1.48,1.48,0,0,0-1.11-.66.17.17,0,0,1-.18-.17h0a.18.18,0,0,1,.17-.17h0a1.83,1.83,0,0,1,1.41.8.19.19,0,0,1,0,.25A.16.16,0,0,1,342.94,211.49Z" style="fill:#263238"></path><path d="M338.59,208.5a5.43,5.43,0,0,1-.17-2,2.48,2.48,0,0,1,1.34-1.53,5,5,0,0,1,3.09,0,2,2,0,0,1,.69.24.69.69,0,0,1,.36.61.7.7,0,0,1-.44.56c-.23.11-2,.53-2.8.82A5.1,5.1,0,0,0,338.59,208.5Z" style="fill:#263238"></path><path d="M349.86,206.56a4.4,4.4,0,0,1,1.08,4.84,18.54,18.54,0,0,1-.93,1.69l-2.48-1.7a5.4,5.4,0,0,1-2.48-2.78,2.89,2.89,0,0,0-3.27-1.74c-.34.07-.81.14-1-.18s.35-1,.73-1.29C343,204.08,345.75,203.37,349.86,206.56Z" style="fill:#263238"></path><path d="M345,208.44c-.92-1.6-2.09-1.75-3.64-1.51a1.42,1.42,0,0,1,.5-1C343.08,204.93,344.74,207.28,345,208.44Z" style="opacity:0.2"></path><path d="M340.68,206.67a1.09,1.09,0,0,0-.25.46,3.4,3.4,0,0,0,.4,2.65,3.65,3.65,0,0,1-.83-1.55,3.49,3.49,0,0,1-.19-1.1,1.47,1.47,0,0,1,.42-1,.94.94,0,0,1,1-.2c.2.1.54.48.3.66S341,206.35,340.68,206.67Z" style="fill:#263238"></path></g><g id="freepik--profile-2--inject-2"><polygon points="338.46 176.76 338.46 278.21 227.35 278.21 227.35 150.19 332.62 150.19 332.62 176.76 338.46 176.76" style="opacity:0.30000000000000004"></polygon><rect x="221.71" y="136.67" width="110.91" height="135.93" style="fill:#fff"></rect><rect x="221.7" y="136.67" width="110.91" height="8.04" style="fill:#263238"></rect><rect x="252.46" y="144.71" width="80.16" height="127.89" style="opacity:0.1"></rect><rect x="256.4" y="147.77" width="22.51" height="26.04" style="opacity:0.1"></rect><rect x="283.21" y="147.77" width="46.71" height="10.72" style="opacity:0.1"></rect><rect x="283.21" y="163.09" width="46.71" height="57.82" style="opacity:0.1"></rect><rect x="283.21" y="225.5" width="46.71" height="43.27" style="opacity:0.1"></rect><rect x="252.2" y="183.77" width="31.01" height="9.96" style="fill:#001F3F"></rect><rect x="221.7" y="163.09" width="31.01" height="9.96" style="fill:#001F3F"></rect><rect x="283.21" y="234.98" width="46.71" height="5.17"></rect><polygon points="287.9 152.11 288.87 150.14 289.84 152.11 292.01 152.43 290.44 153.96 290.82 156.12 288.87 155.1 286.93 156.13 287.3 153.96 285.73 152.43 287.9 152.11" style="fill:#001F3F"></polygon><polygon points="296.75 152.11 297.71 150.14 298.69 152.11 300.86 152.43 299.29 153.96 299.66 156.12 297.72 155.1 295.78 156.13 296.15 153.96 294.57 152.43 296.75 152.11" style="fill:#001F3F"></polygon><polygon points="305.59 152.11 306.56 150.14 307.53 152.11 309.71 152.43 308.14 153.96 308.51 156.12 306.56 155.1 304.62 156.13 304.99 153.96 303.42 152.43 305.59 152.11" style="fill:#001F3F"></polygon><polygon points="314.44 152.11 315.41 150.14 316.38 152.11 318.55 152.43 316.98 153.96 317.36 156.12 315.41 155.1 313.47 156.13 313.84 153.96 312.26 152.43 314.44 152.11"></polygon><polygon points="323.28 152.11 324.25 150.14 325.23 152.11 327.4 152.43 325.83 153.96 326.2 156.12 324.26 155.1 322.31 156.13 322.68 153.96 321.11 152.43 323.28 152.11"></polygon><rect x="286.53" y="168.19" width="18.37" height="1" style="fill:#263238"></rect><rect x="286.53" y="176.81" width="14.5" height="1" style="fill:#263238"></rect><rect x="286.53" y="184.33" width="14.5" height="1" style="fill:#263238"></rect><rect x="286.53" y="191.85" width="14.5" height="1" style="fill:#263238"></rect><rect x="286.53" y="199.38" width="14.5" height="1" style="fill:#263238"></rect><rect x="286.53" y="206.9" width="14.5" height="1" style="fill:#263238"></rect><rect x="286.53" y="214.43" width="14.5" height="1" style="fill:#263238"></rect><rect x="303.03" y="176.81" width="14.5" height="1" style="fill:#263238"></rect><rect x="303.03" y="184.33" width="14.5" height="1" style="fill:#263238"></rect><rect x="303.03" y="191.85" width="14.5" height="1" style="fill:#263238"></rect><rect x="303.03" y="199.38" width="14.5" height="1" style="fill:#263238"></rect><rect x="303.03" y="206.9" width="14.5" height="1" style="fill:#263238"></rect><rect x="303.03" y="214.43" width="14.5" height="1" style="fill:#263238"></rect><rect x="286.53" y="171.06" width="31" height="1" style="fill:#263238"></rect><rect x="286.53" y="230.46" width="31" height="1" style="fill:#263238"></rect><rect x="256.4" y="176.81" width="22.52" height="1" style="fill:#263238"></rect><rect x="256.4" y="198.71" width="22.52" height="1" style="fill:#263238"></rect><rect x="256.4" y="207.09" width="22.52" height="1" style="fill:#263238"></rect><rect x="256.4" y="215.47" width="22.52" height="1" style="fill:#263238"></rect><rect x="256.4" y="223.84" width="22.52" height="1" style="fill:#263238"></rect><rect x="256.4" y="232.22" width="22.52" height="1" style="fill:#263238"></rect><rect x="256.4" y="240.6" width="22.52" height="1" style="fill:#263238"></rect><rect x="256.4" y="248.97" width="22.52" height="1" style="fill:#263238"></rect><rect x="256.4" y="257.35" width="22.52" height="1" style="fill:#263238"></rect><rect x="256.4" y="180.04" width="11.26" height="1" style="fill:#263238"></rect><rect x="225.58" y="149.64" width="23.26" height="1" style="fill:#263238"></rect><rect x="225.58" y="156.11" width="23.26" height="1" style="fill:#263238"></rect><rect x="225.58" y="180.04" width="23.26" height="1" style="fill:#263238"></rect><path d="M256.46,173.72v-3.17h0a33.4,33.4,0,0,1,21.83-.23l.68.23v3.17Z" style="fill:#263238"></path><path d="M271.13,162.32l-2.37,1.88-3.21,2.56a3.53,3.53,0,0,1,.34,1.19,1.9,1.9,0,0,1-1.17,2.2c-.44.11-1,2.18,1.65,2.46a5.6,5.6,0,0,0,4.35-1.07c.61-.56.8-.89.44-1.7C270.1,167.56,270.53,164.62,271.13,162.32Z" style="fill:#dd8c6a"></path><path d="M266.33,166.13l2.08-1.9a2,2,0,0,0,0,.23,6.28,6.28,0,0,1,0,1,4,4,0,0,1-2.51,2.74l0-.24a4.42,4.42,0,0,0-.3-1.12l0-.06Z" style="opacity:0.2;isolation:isolate"></path><path d="M264.69,160.64c-1.13-3.39-.51-5.12-1.81-7-.78-.5-2.47.81-1.91,3.58S264.69,160.64,264.69,160.64Z" style="fill:#263238"></path><path d="M271.72,158.16c-.37,3.68-.44,5.84-2.38,7.61-2.93,2.67-7.4.69-8.11-3-.65-3.37.11-8.81,3.79-10a5.13,5.13,0,0,1,6.48,3.26A5.05,5.05,0,0,1,271.72,158.16Z" style="fill:#dd8c6a"></path><path d="M271.65,161.46l-1.6.09-.31-2.45-1.48-1.18-.42-3.83s3.38,0,4.68,0c.46,0,1.84,1.47,2,2a4.27,4.27,0,0,1-1.36,4.26A9,9,0,0,1,271.65,161.46Z" style="fill:#263238"></path><path d="M271.7,155.61c-.94.49-2.11-.05-3.12-.33a29.82,29.82,0,0,0-3.06-.78,3.8,3.8,0,0,0-2.65.42,1.88,1.88,0,0,0-.73,2.37,3.91,3.91,0,0,1-.75-6.42,5.28,5.28,0,0,1,3.25-1.16,15.86,15.86,0,0,1,3.49.37c1.53.27,3.73.25,5.14.9S274.55,154.12,271.7,155.61Z" style="fill:#263238"></path><path d="M273.11,161.06a3.39,3.39,0,0,1-1.44,1.92c-.91.56-1.7-.39-1.62-1.43s.79-2.2,1.78-2.33S273.38,160.07,273.11,161.06Z" style="fill:#dd8c6a"></path><path d="M265.88,159.31c0,.31-.16.56-.36.57s-.35-.23-.37-.54.17-.57.37-.57S265.88,159,265.88,159.31Z" style="fill:#263238"></path><path d="M262.4,159.42c0,.31-.16.57-.36.57s-.37-.24-.37-.54.17-.56.37-.57S262.4,159.11,262.4,159.42Z" style="fill:#263238"></path><path d="M263.52,159.61a9.76,9.76,0,0,1-1.1,2.36,1.47,1.47,0,0,0,1.26.11Z" style="fill:#ff5652"></path><path d="M264,163.88a2.65,2.65,0,0,0,1.91-.81.09.09,0,0,0-.14-.12,2.55,2.55,0,0,1-2.11.74.09.09,0,0,0-.11.07.1.1,0,0,0,.08.11h0A2.17,2.17,0,0,0,264,163.88Z" style="fill:#263238"></path><path d="M266.56,158.2a.18.18,0,0,0,.09,0,.17.17,0,0,0,0-.25,1.71,1.71,0,0,0-1.48-.67.19.19,0,0,0-.17.2h0a.18.18,0,0,0,.2.16,1.4,1.4,0,0,1,1.16.53A.17.17,0,0,0,266.56,158.2Z" style="fill:#263238"></path><path d="M262.38,157.42a.16.16,0,0,0,0-.09.18.18,0,0,0-.2-.16,1.71,1.71,0,0,0-1.39.84.18.18,0,0,0,.07.25.19.19,0,0,0,.25-.08,1.34,1.34,0,0,1,1.1-.65A.18.18,0,0,0,262.38,157.42Z" style="fill:#263238"></path></g><g id="freepik--profile-1--inject-2"><rect x="180.76" y="204.49" width="111.12" height="128.02" style="opacity:0.30000000000000004"></rect><rect x="175.11" y="190.97" width="110.91" height="135.93" style="fill:#fff"></rect><rect x="175.11" y="190.97" width="110.91" height="8.04" style="fill:#263238"></rect><rect x="205.87" y="199.02" width="80.16" height="127.89" style="opacity:0.1"></rect><rect x="209.81" y="202.08" width="22.51" height="26.04" style="opacity:0.1"></rect><rect x="236.62" y="202.08" width="46.71" height="10.72" style="opacity:0.1"></rect><rect x="236.62" y="217.39" width="46.71" height="57.82" style="opacity:0.1"></rect><rect x="236.62" y="279.81" width="46.71" height="43.27" style="opacity:0.1"></rect><rect x="205.61" y="238.07" width="31.01" height="9.96" style="fill:#001F3F"></rect><rect x="175.11" y="217.39" width="31.01" height="9.96" style="fill:#001F3F"></rect><rect x="236.62" y="289.28" width="46.71" height="5.17"></rect><polygon points="241.31 206.42 242.28 204.45 243.25 206.42 245.43 206.73 243.85 208.26 244.23 210.43 242.28 209.41 240.34 210.43 240.71 208.27 239.14 206.74 241.31 206.42" style="fill:#001F3F"></polygon><polygon points="250.16 206.42 251.13 204.45 252.1 206.42 254.27 206.73 252.7 208.26 253.07 210.43 251.13 209.41 249.19 210.43 249.56 208.27 247.98 206.74 250.16 206.42" style="fill:#001F3F"></polygon><polygon points="259 206.42 259.97 204.45 260.94 206.42 263.12 206.73 261.55 208.26 261.92 210.43 259.98 209.41 258.03 210.43 258.4 208.27 256.83 206.74 259 206.42" style="fill:#001F3F"></polygon><polygon points="267.85 206.42 268.82 204.45 269.79 206.42 271.96 206.73 270.39 208.26 270.76 210.43 268.82 209.41 266.88 210.43 267.25 208.27 265.68 206.74 267.85 206.42" style="fill:#001F3F"></polygon><polygon points="276.69 206.42 277.66 204.45 278.64 206.42 280.81 206.73 279.24 208.26 279.61 210.43 277.67 209.41 275.73 210.43 276.09 208.27 274.52 206.74 276.69 206.42"></polygon><rect x="239.94" y="222.5" width="18.37" height="1" style="fill:#263238"></rect><rect x="239.94" y="231.11" width="14.5" height="1" style="fill:#263238"></rect><rect x="239.94" y="238.64" width="14.5" height="1" style="fill:#263238"></rect><rect x="239.94" y="246.16" width="14.5" height="1" style="fill:#263238"></rect><rect x="239.94" y="253.68" width="14.5" height="1" style="fill:#263238"></rect><rect x="239.94" y="261.21" width="14.5" height="1" style="fill:#263238"></rect><rect x="239.94" y="268.73" width="14.5" height="1" style="fill:#263238"></rect><rect x="256.45" y="231.11" width="14.5" height="1" style="fill:#263238"></rect><rect x="256.45" y="238.64" width="14.5" height="1" style="fill:#263238"></rect><rect x="256.45" y="246.16" width="14.5" height="1" style="fill:#263238"></rect><rect x="256.45" y="253.68" width="14.5" height="1" style="fill:#263238"></rect><rect x="256.45" y="261.21" width="14.5" height="1" style="fill:#263238"></rect><rect x="256.45" y="268.73" width="14.5" height="1" style="fill:#263238"></rect><rect x="239.94" y="225.37" width="31" height="1" style="fill:#263238"></rect><rect x="239.94" y="284.76" width="31" height="1" style="fill:#263238"></rect><rect x="209.81" y="231.11" width="22.52" height="1" style="fill:#263238"></rect><rect x="209.81" y="253.02" width="22.52" height="1" style="fill:#263238"></rect><rect x="209.81" y="261.4" width="22.52" height="1" style="fill:#263238"></rect><rect x="209.81" y="269.77" width="22.52" height="1" style="fill:#263238"></rect><rect x="209.81" y="278.15" width="22.52" height="1" style="fill:#263238"></rect><rect x="209.81" y="286.52" width="22.52" height="1" style="fill:#263238"></rect><rect x="209.81" y="294.9" width="22.52" height="1" style="fill:#263238"></rect><rect x="209.81" y="303.28" width="22.52" height="1" style="fill:#263238"></rect><rect x="209.81" y="311.65" width="22.52" height="1" style="fill:#263238"></rect><rect x="209.81" y="234.34" width="11.26" height="1" style="fill:#263238"></rect><rect x="178.99" y="203.95" width="23.26" height="1" style="fill:#263238"></rect><rect x="178.99" y="210.41" width="23.26" height="1" style="fill:#263238"></rect><rect x="178.99" y="234.34" width="23.26" height="1" style="fill:#263238"></rect><path d="M209.81,228.12v-3.18h0a33.56,33.56,0,0,1,21.84-.23l.68.23v3.18Z" style="fill:#001F3F"></path><path d="M219.1,205.36a4.78,4.78,0,0,0-4.21.82,8.24,8.24,0,0,0-2.63,3.53,2.37,2.37,0,0,0,0,2.36c.53.67,1.55.63,2.41.53C216,210.08,217.58,207.78,219.1,205.36Z" style="fill:#263238"></path><path d="M218.31,220.56c.64,1.54,1,3.26-1,4.64a2.21,2.21,0,0,0-.86,1.18c-.21.78.06,1.66,2.95.76,4.18-1.3,4.46-3.83,4.46-3.83-1.78-1.05-2-5.38-1.84-7.8Z" style="fill:#ffb573"></path><path d="M221,218.93c0,1.06-1.38,2.39-2.32,2.82a6.47,6.47,0,0,0-.39-1.2l2.22-3A3.48,3.48,0,0,1,221,218.93Z" style="opacity:0.2;isolation:isolate"></path><path d="M224.34,209.69a5.23,5.23,0,0,0-6.53-3.49c-3.91,1.16-5,6.8-4.55,10.33.51,3.95,5.08,5.53,8.29,2.83,2.15-1.8,2.33-3.43,2.94-7.25A5.35,5.35,0,0,0,224.34,209.69Z" style="fill:#ffb573"></path><path d="M215.6,215.35a1.46,1.46,0,0,1-1.15-.33,8.63,8.63,0,0,0,1.39-2Z" style="fill:#ed893e"></path><path d="M218.54,215.9a.1.1,0,0,0,0-.13.09.09,0,0,0-.13,0,2.46,2.46,0,0,1-2.11.77.11.11,0,0,0-.1.09h0a.1.1,0,0,0,.08.1,3.38,3.38,0,0,0,.45,0A2.64,2.64,0,0,0,218.54,215.9Z" style="fill:#263238"></path><path d="M215.55,206.66a3.49,3.49,0,0,1,3.4,2,9.64,9.64,0,0,1,.52,1.93,3.69,3.69,0,0,0,.83,1.8,1.58,1.58,0,0,0,1.82.38,3.45,3.45,0,0,0,2.58,2.36c-.86,1.25-1.93,2.56-2.79,3.81.31,1,.34,1.16.65,2.13a8.54,8.54,0,0,0,5-4.24c1-2,1.22-4.51-.68-4.57.67-1.35-.56-4.18-1.57-5.3a8.32,8.32,0,0,0-7-2A4.76,4.76,0,0,0,215.55,206.66Z" style="fill:#263238"></path><path d="M225.4,214.81a1.27,1.27,0,0,0-1.12-1.39c-1-.08-1.69,1.07-1.89,1.9s.3,1.74,1.24,1.42a2.83,2.83,0,0,0,1.61-1.43A1.23,1.23,0,0,0,225.4,214.81Z" style="fill:#ffb573"></path><path d="M219.29,211.13a.19.19,0,0,0,.09,0,.2.2,0,0,0,0-.27h0a2.17,2.17,0,0,0-1.86-.83.18.18,0,0,0-.16.21.18.18,0,0,0,.2.16,1.87,1.87,0,0,1,1.53.7A.19.19,0,0,0,219.29,211.13Z" style="fill:#263238"></path><path d="M213.5,211.33a.16.16,0,0,0,.08-.05,1.86,1.86,0,0,1,1.52-.72.19.19,0,0,0,.21-.17h0a.21.21,0,0,0-.18-.21,2.24,2.24,0,0,0-1.85.86.18.18,0,0,0,.21.29Z" style="fill:#263238"></path><path d="M218.37,212.08c0,.34-.21.62-.44.61s-.4-.3-.38-.65.21-.61.43-.61S218.38,211.73,218.37,212.08Z" style="fill:#263238"></path><path d="M214.89,212.37c0,.33-.2.59-.42.58s-.37-.28-.36-.62.2-.59.42-.58S214.91,212,214.89,212.37Z" style="fill:#263238"></path><path d="M214.62,211.77l-.78-.26S214.22,212.15,214.62,211.77Z" style="fill:#263238"></path><path d="M218.08,211.46l-.82-.28S217.66,211.85,218.08,211.46Z" style="fill:#263238"></path></g><g id="freepik--Character--inject-2"><path d="M90.64,250c-7.74,0-7.74-6.63-7.74-6.63l65.75-70.68.34-1.53,3.77,3.51a1,1,0,0,1-.1.15C152.45,175.21,95,250,90.64,250Z" style="fill:#263238"></path><g style="opacity:0.5"><path d="M189.63,156.54c-8.63,13.34-23.08,23.58-32.17,18.83a.38.38,0,0,0,.1-.16l-5-2.72c-3.35-3-5.24-7.41-5.72-12.59-.76-8,1.77-17.68,7.29-26.65,9.73-15.82,25.59-22.85,32.91-18.48a37.12,37.12,0,0,1,3.46,2.34l.05,0a23.08,23.08,0,0,1,2.75,2.12,8.86,8.86,0,0,1,1.1,1.31,17.54,17.54,0,0,1,3.06,9.2C198.14,137.5,195.57,147.39,189.63,156.54Z" style="fill:#fff;opacity:0.4"></path></g><path d="M197.47,129.55l-44.9,42.7c-3.35-3-5.24-7.41-5.73-12.59l0-.08,47.54-39.23A17.64,17.64,0,0,1,197.47,129.55Z" style="fill:#fff;opacity:0.2"></path><path d="M193.05,157.9c10.91-17.62,9.55-38.27-3.09-46.09s-31.71.16-42.63,17.77c-10.63,17.18-9.62,37.19,2.09,45.45.32.25.65.45,1,.67a19,19,0,0,0,4.37,2C167.12,181.66,183.32,173.61,193.05,157.9Zm-36.6,16.48a8.49,8.49,0,0,1-2-.84,1.51,1.51,0,0,1-.28-.15l-.42-.27-.12-.08a11.86,11.86,0,0,1-1.69-1.3c-7.76-7.06-7-24,2.19-38.73,9.79-15.79,25.81-22.78,32.56-18.79a35.11,35.11,0,0,1,3.18,2.14l0,0a9,9,0,0,1,1.44,1.24c6,6.27,4.15,21.69-4.85,36.22S164.75,176.8,156.45,174.38Z" style="fill:#263238"></path><g style="opacity:0.4"><path d="M189.6,156.28c-8.64,13.37-23.08,23.61-32.17,18.84a.38.38,0,0,0,.1-.16l-1.07-.59c8.28,2.43,21.12-6.12,30.06-20.53s10.88-29.92,4.84-36.2a7.28,7.28,0,0,0-.63-.61,21.29,21.29,0,0,1,2.58,2,8.24,8.24,0,0,1,1.09,1.29,17.88,17.88,0,0,1,3.08,9.19C198.09,137.25,195.53,147.16,189.6,156.28Z" style="opacity:0.4"></path></g><path d="M64.5,312.66c.39,2.62,3,4.24,5.47,5.26a41.76,41.76,0,0,0,13.89,3.13,235.63,235.63,0,0,0,7.54-39.21C79.61,289.16,62.45,298.94,64.5,312.66Z" style="fill:#263238"></path><path d="M64.5,312.66c.39,2.62,3,4.24,5.47,5.26a41.76,41.76,0,0,0,13.89,3.13,235.63,235.63,0,0,0,7.54-39.21C79.61,289.16,62.45,298.94,64.5,312.66Z" style="opacity:0.2;isolation:isolate"></path><path d="M124.2,154.32c.37-.06.77.34.88.91s-.1,1.11-.48,1.17-.77-.33-.88-.91S123.82,154.39,124.2,154.32Z" style="fill:#263238"></path><path d="M125.21,161.92a3.36,3.36,0,0,0,2.65-1,21.55,21.55,0,0,1-3.69-4.39Z" style="fill:#b74d3c"></path><path d="M121.25,152.65a2.71,2.71,0,0,1,2.3-1h0l.12,0a.35.35,0,0,0,.35-.34.35.35,0,0,0-.34-.36,3.41,3.41,0,0,0-2.92,1.11.31.31,0,0,0-.09.22.34.34,0,0,0,.33.36A.36.36,0,0,0,121.25,152.65Z" style="fill:#263238"></path><path d="M116.73,187.45c-9.85-.1-11.25-5.49-11.25-5.49,3-2.8,3.25-8.06,2.72-12.76a10.87,10.87,0,0,0,2.87,2.87,9,9,0,0,0,7.18,1.44.33.33,0,0,0,.13,0,1.4,1.4,0,0,0-.06.28c-.67,3.75-.23,7.77,3.69,9C122,182.78,127.58,187.56,116.73,187.45Z" style="fill:#cb7a63"></path><path d="M118.68,172.09a12,12,0,0,0-.3,1.38.33.33,0,0,1-.13,0,9,9,0,0,1-7.18-1.44,10.87,10.87,0,0,1-2.87-2.87c-.13-1.19-.32-2.35-.52-3.42l10.6,6.08Z" style="fill:#cb7a63"></path><path d="M102.47,182.8s1.65-4.77,4-6.24,12.66.32,14.26,1,3.16,4.42,3.16,4.42Z" style="fill:#263238"></path><path d="M102.47,182.8s1.65-4.77,4-6.24,12.66.32,14.26,1,3.16,4.42,3.16,4.42Z" style="fill:#fff;opacity:0.5"></path><path d="M125.9,164.2a10,10,0,0,1-5,8.28h-.06a8.22,8.22,0,0,1-2.44,1,.33.33,0,0,1-.13,0,9,9,0,0,1-7.18-1.44,10.87,10.87,0,0,1-2.87-2.87c-1.88-2.68-2.61-6.23-3.89-11.23a9.84,9.84,0,0,1,11.44-12.19C123.21,147.27,126.19,157.55,125.9,164.2Z" style="fill:#cb7a63"></path><path d="M120.82,172.49a8.22,8.22,0,0,1-2.44,1s.36-4.38.36-4.38S120.3,172.49,120.82,172.49Z" style="opacity:0.2"></path><path d="M102.47,155.36c-1,2-3.24,4.27-4.19,6.26a5.8,5.8,0,0,0-.84,3.35,2.36,2.36,0,0,0,2.63,2c-1,1.42-.26,3.76,1.27,4.73a4,4,0,0,0,5-.73c1,1.08,1.75,1.88,3.27,1.9a5.54,5.54,0,0,0,4-1.65,4.92,4.92,0,0,0,5.5,1.17,4.23,4.23,0,0,0,2.3-4.81,15,15,0,0,1-.75-5.12s2.15-3.16,1.27-5.07l-.94-6a9,9,0,0,0-5.85-1.82,18.27,18.27,0,0,0-6.1,1.36C106.33,152,103.64,152.9,102.47,155.36Z" style="fill:#263238"></path><path d="M118.82,155c2.05.65,3.07,3.73,3.12,5.67.06,2.14-1.4,3.46-3.24,2a8.21,8.21,0,0,1-2.77-4.43C115.47,156.16,116.76,154.39,118.82,155Z" style="fill:#cb7a63"></path><path d="M99.38,408.3c-1-.05-1.94-.24-2.21-.7a.66.66,0,0,1,.08-.79.89.89,0,0,1,.62-.39c1.31-.28,3.86,1.39,4,1.46a.18.18,0,0,1,.07.19.17.17,0,0,1-.16.14A13.81,13.81,0,0,1,99.38,408.3Zm-1.08-1.55a1.4,1.4,0,0,0-.35,0,.56.56,0,0,0-.39.24c-.14.22-.11.32,0,.4.31.51,2.26.62,3.71.51a8,8,0,0,0-2.93-1.15Z" style="fill:#001F3F"></path><path d="M101.73,408.19h-.08c-.89-.47-2.57-2.2-2.34-3.08,0-.21.22-.45.73-.48a1.36,1.36,0,0,1,1,.36c.95.87.91,2.94.91,3a.23.23,0,0,1-.1.16A.17.17,0,0,1,101.73,408.19ZM100.14,405H100c-.33,0-.37.15-.38.19-.13.52,1,1.88,1.89,2.51a4.15,4.15,0,0,0-.8-2.42.88.88,0,0,0-.62-.3Z" style="fill:#001F3F"></path><polygon points="111.13 390.76 103.47 390.35 102.52 408.05 110.22 408.46 111.13 390.76" style="fill:#cb7a63"></polygon><path d="M100.73,407.66c-5.53,2.92-7.15,3-13.33,4-1.35.22-.8,3.46,2.37,3.63,5.25.29,5.82.07,10.29.31,3.83.21,8.22.62,11.26.83a.88.88,0,0,0,.28,0,1.17,1.17,0,0,0,1-1.3l-.87-6.91a.66.66,0,0,0-.61-.56l-8.43-.45A3.8,3.8,0,0,0,100.73,407.66Z" style="fill:#263238"></path><polygon points="111.14 390.77 110.57 401.46 102.88 401.05 103.47 390.36 111.14 390.77" style="opacity:0.2;isolation:isolate"></polygon><path d="M121.79,236.42s-.65,51.07-2.38,75.14c-1.62,22.42-6.63,87.77-6.63,87.77l-13-.71s-2.73-67.14-3-90c-.24-21.66-1.3-73.18-1.3-73.18Z" style="fill:#001F3F"></path><path d="M121.79,236.42s-.65,51.07-2.38,75.14c-1.62,22.42-6.63,87.77-6.63,87.77l-13-.71s-2.73-67.14-3-90c-.24-21.66-1.3-73.18-1.3-73.18Z" style="fill:#263238"></path><path d="M121.79,236.42s-.65,51.07-2.38,75.14c-1.62,22.42-6.63,87.77-6.63,87.77l-13-.71s-2.73-67.14-3-90c-.24-21.66-1.3-73.18-1.3-73.18Z" style="fill:#fff;opacity:0.6000000000000001"></path><path d="M115.13,394.88l-.88,4.74-15.83-.85s-.26-5.39-.2-5.39Z" style="fill:#263238"></path><g style="opacity:0.5"><path d="M115.13,394.88l-.88,4.74-15.83-.85s-.26-5.39-.2-5.39Z" style="fill:#fff"></path></g><path d="M178.59,406.87c-.09-1-.05-1.95.36-2.32a.7.7,0,0,1,.8-.09.91.91,0,0,1,.47.53c.47,1.22-.79,4.09-.85,4.23a.17.17,0,0,1-.18.11.18.18,0,0,1-.16-.13A14.08,14.08,0,0,1,178.59,406.87Zm1.38-1.39a2.07,2.07,0,0,0,0-.35.5.5,0,0,0-.29-.33c-.24-.1-.35,0-.4.05-.46.41-.29,2.34.05,3.74a8.59,8.59,0,0,0,.67-3.11Z" style="fill:#001F3F"></path><path d="M179,409.15a.17.17,0,0,1,0-.07c.33-1,1.81-3,2.69-3,.21,0,.48.13.57.61a1.37,1.37,0,0,1-.21,1.06c-.7,1.11-2.76,1.52-2.84,1.54a.18.18,0,0,1-.17-.06A.13.13,0,0,1,179,409.15Zm2.91-2.22v-.12c0-.32-.2-.33-.24-.32-.53,0-1.71,1.37-2.19,2.38a4.45,4.45,0,0,0,2.27-1.28,1.08,1.08,0,0,0,.2-.67Z" style="fill:#001F3F"></path><polygon points="173.38 391.85 165.99 393.2 171.7 410.55 179.15 409.19 173.38 391.85" style="fill:#cb7a63"></polygon><path d="M180.86,408c2.24,2.17,3.42,3.28,9.46,4.48,1.33.26.45,3.49-2.72,3.56-5.24.12-2.37-.19-6.84-.09-3.82.08-8.21.36-11.25.48a1.08,1.08,0,0,1-.31,0,1.1,1.1,0,0,1-.84-1.33l1.54-6.9a.68.68,0,0,1,.66-.54l8.4-.19A2.53,2.53,0,0,1,180.86,408Z" style="fill:#263238"></path><polygon points="173.39 391.86 176.35 400.77 168.93 402.13 165.99 393.2 173.39 391.86" style="opacity:0.2;isolation:isolate"></polygon><path d="M121.57,270c-1,17.3-1.87,38-2.58,49.51,0,.56-.08,1.13-.1,1.75-3.2-18.26-8-48,.85-51.07A5.59,5.59,0,0,1,121.57,270Z" style="opacity:0.30000000000000004;isolation:isolate"></path><path d="M99,238.79s1.72,17.79,4.49,25.6c3.92,11.05,8.81,14.61,12.57,21.22,6.63,11.65,10.32,21.66,14.79,30.93,14,29,33.38,80.07,33.38,80.07l14-1L128.64,237.94Z" style="fill:#263238"></path><path d="M99,238.79s1.72,17.79,4.49,25.6c3.92,11.05,8.81,14.61,12.57,21.22,6.63,11.65,10.32,21.66,14.79,30.93,14,29,33.38,80.07,33.38,80.07l14-1L128.64,237.94Z" style="fill:#fff;opacity:0.6000000000000001"></path><path d="M180.71,392.64l.17,4.81-16.27,2.43s-1.47-5.2-1.41-5.2Z" style="fill:#263238"></path><g style="opacity:0.5"><path d="M180.71,392.64l.17,4.81-16.27,2.43s-1.47-5.2-1.41-5.2Z" style="fill:#fff"></path></g><path d="M103.22,225.57c-.68,1.7-2.28,5.09-4.73,7.09a2,2,0,0,1-2,.32s-4.31-2.66-4.65-3.86a.56.56,0,0,1,0-.22l1.07-5,.13-.05c.78-.26,5-1.55,6.78-.83l2.79,1.12A1,1,0,0,1,103.22,225.57Z" style="fill:#cb7a63"></path><path d="M96.19,194.8,81.56,209.05l11.51,14.84-.13.05-1.07,5a.56.56,0,0,0,0,.22,4.41,4.41,0,0,1-2.27.21S67.77,211.64,69,208.58a58.74,58.74,0,0,1,4-7l.15-.23c1.93-3.2,14.07-21.37,23.2-21.27C103.57,180.14,103.18,188.45,96.19,194.8Z" style="fill:#001F3F"></path><path d="M96.19,194.8,81.56,209.05l11.51,14.84-.13.05-1.07,5a.56.56,0,0,0,0,.22,4.41,4.41,0,0,1-2.27.21S67.5,214.2,69,208.58c.42-1.61,2.34-4.44,4-7l.15-.23c1.93-3.2,14.07-21.37,23.2-21.27C103.57,180.14,103.18,188.45,96.19,194.8Z" style="opacity:0.5"></path><path d="M91.88,229.12a.56.56,0,0,1,0-.22l1.07-5,.13-.05.36.15S94.6,228.08,91.88,229.12Z" style="fill:#263238"></path><g id="freepik--group--inject-2"><path d="M164.14,313.46c-22.48,5.47-20.26-13-51.16-1-9.1,3.54-14.39-5.6-19.31-7.1-9.81-3-20.72-2.08-29.36,3.45a254.4,254.4,0,0,1,29.84-71.57c.71-5.22,2.79-16.26-2.86-47.14-1-5.67,4.84-10.53,10.59-10.83l3.63-.27a143.64,143.64,0,0,1,16.47.17c1.83.18,3.61.46,5.19.76a10.3,10.3,0,0,1,8.24,8.29,73.55,73.55,0,0,1,1,16.83c-.22,5.87-.9,13.54-2.3,24.14-.35,2.66-.75,5.51-1.2,8.57l0,0S147.65,273.15,164.14,313.46Z" style="fill:#001F3F"></path><path d="M164.14,313.46c-22.48,5.47-20.26-13-51.16-1-9.1,3.54-14.39-5.6-19.31-7.1-9.81-3-20.72-2.08-29.36,3.45a254.4,254.4,0,0,1,29.84-71.57c.71-5.22,2.79-16.26-2.86-47.14-1-5.67,4.84-10.53,10.59-10.83l3.63-.27a143.64,143.64,0,0,1,16.47.17c1.83.18,3.61.46,5.19.76a10.3,10.3,0,0,1,8.24,8.29,73.55,73.55,0,0,1,1,16.83c-.22,5.87-.9,13.54-2.3,24.14-.35,2.66-.75,5.51-1.2,8.57l0,0S147.65,273.15,164.14,313.46Z" style="opacity:0.5"></path><path d="M136.41,205.07c-.22,5.87-.9,13.54-2.3,24.14-.86-9.28-2.39-18.39-7.89-37l10,3.19C136.42,198.49,136.45,201.78,136.41,205.07Z" style="opacity:0.2;isolation:isolate"></path><path d="M131.44,164.67a1.54,1.54,0,0,0-1.49-1c-2.11-.17-3.21-.33-5.18.45a.84.84,0,0,0-.38.26.88.88,0,0,0-.08.39c0,1.17-.07,2.34-.11,3.5a1.2,1.2,0,0,0,.65,1.31c1.08.76,6.19,3.36,6.19,3.36,1,.11,3.16-1.82,4.06-2.33Z" style="fill:#cb7a63"></path><path d="M129.65,173.07l5.74-3.08s14.88,19,15.76,20.53c7,12.33-2.62,12-5.35,10.3-6.27-3.89-5.66-9.51-8.12-14.43Z" style="fill:#001F3F"></path><g style="opacity:0.5"><path d="M129.65,173.07l5.74-3.08s14.88,19,15.76,20.53c7,12.33-2.62,12-5.35,10.3-6.27-3.89-5.66-9.51-8.12-14.43Z"></path></g><path d="M133.28,182.55a181.35,181.35,0,0,0,20.35,13.13l.35,1.47a4.14,4.14,0,0,1-5.26,4.93l-1.74-.54s-22.78-6.23-23.28-12.79C120.67,185,126.31,176.17,133.28,182.55Z" style="fill:#001F3F"></path><path d="M133.28,182.55a181.35,181.35,0,0,0,20.35,13.13l.35,1.47a4.14,4.14,0,0,1-5.26,4.93l-1.74-.54s-22.78-6.23-23.28-12.79C120.67,185,126.31,176.17,133.28,182.55Z" style="opacity:0.5"></path></g><path d="M124.09,149.76v0l-3.18.76-20.67,4.93a3.23,3.23,0,0,1-.12-.47,21.63,21.63,0,0,1-.49-2.82c-.07-.66-.12-1.32-.13-2-.12-7,3.29-13,8.68-14.27s11.12,2.49,14.18,8.81c.27.56.52,1.16.75,1.76a21.05,21.05,0,0,1,.87,2.79C124,149.46,124.06,149.62,124.09,149.76Z" style="fill:#263238"></path><path d="M124,149.76l-3.18.78-20.67,4.93c0-.14-.08-.31-.12-.47a21.59,21.59,0,0,1-.48-2.82L123,146.51a21.05,21.05,0,0,1,.87,2.79C124,149.46,124,149.62,124,149.76Z" style="opacity:0.5"></path><path d="M131.74,149.92A2.3,2.3,0,0,1,130,152.7L97.4,160.49a2.31,2.31,0,0,1-2.78-1.71A2.28,2.28,0,0,1,94.9,157a2.3,2.3,0,0,1,1.43-1l32.63-7.8A2.31,2.31,0,0,1,131.74,149.92Z" style="fill:#263238"></path></g></svg>